<?xml version="1.0" standalone="no"?>
<!DOCTYPE svg PUBLIC "-//W3C//DTD SVG 20010904//EN"
 "http://www.w3.org/TR/2001/REC-SVG-20010904/DTD/svg10.dtd">
<svg version="1.0" xmlns="http://www.w3.org/2000/svg"
 width="512.000000pt" height="512.000000pt" viewBox="0 0 512.000000 512.000000"
 preserveAspectRatio="xMidYMid meet">
<metadata>
Created by potrace 1.16, written by Peter Selinger 2001-2019
</metadata>
<g transform="translate(0.000000,512.000000) scale(0.100000,-0.100000)"
fill="#000000" stroke="none">
<path d="M2585 3971 c-47 -28 -128 -124 -163 -192 -17 -33 -39 -96 -49 -139
l-18 -80 -235 -2 -235 -3 0 -25 0 -25 229 -3 c177 -2 231 1 238 10 4 7 8 -57
8 -142 0 -85 3 -185 6 -222 l7 -67 -174 -173 c-96 -95 -194 -201 -219 -236
-40 -56 -46 -60 -50 -40 l-6 23 -344 0 c-342 0 -345 0 -348 -21 -6 -43 8 -45
360 -42 l334 3 -38 -77 c-90 -184 -99 -360 -28 -545 15 -39 44 -94 64 -121 20
-27 36 -54 36 -60 0 -11 133 -92 195 -118 33 -14 66 -15 205 -12 156 5 220 15
220 37 0 6 -42 7 -109 4 -92 -5 -118 -3 -178 16 -137 41 -247 154 -304 311
-21 55 -24 83 -24 190 0 69 3 139 8 155 l7 30 -14 -25 c-8 -14 -22 -56 -32
-95 -22 -92 -34 -103 -34 -32 0 125 45 277 113 379 39 60 371 408 389 408 4 0
8 -12 8 -26 0 -34 21 -27 33 11 6 17 50 79 99 140 174 215 226 392 155 530
-15 30 -16 37 -4 27 25 -21 47 -101 47 -172 0 -177 -99 -357 -336 -613 -252
-271 -328 -378 -380 -532 -70 -206 -25 -423 118 -568 66 -67 134 -101 231
-117 111 -17 257 15 257 58 0 37 -12 40 -85 25 -83 -17 -169 -6 -250 31 -127
58 -215 190 -223 334 -10 187 54 312 325 630 l28 32 2 -97 c1 -54 6 -110 10
-124 7 -23 11 -25 41 -17 38 10 38 11 17 182 -12 96 -12 123 -2 137 6 9 37 50
68 91 126 166 197 309 220 442 15 91 6 245 -19 316 -40 114 -110 230 -139 230
-4 0 -22 -8 -38 -19z m59 -53 c20 -28 21 -44 2 -29 -12 10 -25 -4 -72 -76
-116 -179 -134 -245 -134 -515 0 -105 -4 -188 -9 -188 -13 0 -25 237 -18 376
9 192 50 311 142 409 46 50 67 55 89 23z m14 -255 c46 -90 -2 -263 -114 -413
l-49 -65 -8 75 c-19 165 28 359 97 401 39 24 63 24 74 2z"/>
<path d="M3044 3545 c-4 -8 -4 -22 0 -30 5 -13 47 -15 300 -15 262 0 295 2
300 16 16 41 -3 44 -306 44 -247 0 -289 -2 -294 -15z"/>
<path d="M1735 3420 c-3 -11 -3 -24 0 -30 4 -6 115 -10 305 -10 266 0 299 2
304 16 16 41 -2 44 -310 44 -283 0 -293 -1 -299 -20z"/>
<path d="M2997 3433 c-4 -3 -7 -17 -7 -30 l0 -23 625 0 c584 0 625 1 633 18
22 43 31 42 -622 42 -343 0 -626 -3 -629 -7z"/>
<path d="M1650 3390 c0 -5 16 -10 36 -10 21 0 33 4 29 10 -3 6 -19 10 -36 10
-16 0 -29 -4 -29 -10z"/>
<path d="M3237 3323 c-199 -3 -258 -6 -254 -16 3 -9 97 -13 401 -15 375 -2
397 -1 394 15 -4 20 -44 21 -541 16z"/>
<path d="M1884 3155 c-4 -8 -4 -22 0 -30 5 -13 40 -15 235 -15 194 0 230 2
235 15 3 8 3 22 0 30 -5 13 -41 15 -235 15 -195 0 -230 -2 -235 -15z"/>
<path d="M2870 3156 c-25 -31 -5 -47 57 -44 54 3 58 5 58 28 0 23 -4 25 -51
28 -36 2 -54 -1 -64 -12z"/>
<path d="M3455 3160 l-320 -5 0 -25 0 -25 649 0 c615 0 649 1 660 18 30 49
-40 52 -989 37z"/>
<path d="M1764 3035 c-4 -8 -4 -22 0 -30 5 -13 42 -15 249 -15 229 0 245 1
261 19 10 11 15 25 11 30 -4 7 -92 11 -261 11 -217 0 -255 -2 -260 -15z"/>
<path d="M3047 2993 c-14 -13 -7 -51 11 -58 24 -9 805 -3 831 7 16 5 21 15 19
30 l-3 23 -426 3 c-234 1 -429 -1 -432 -5z"/>
<path d="M2580 2968 c0 -35 28 -184 50 -268 22 -85 20 -66 -11 143 -13 81 -26
147 -31 147 -4 0 -8 -10 -8 -22z"/>
<path d="M1103 2833 c-16 -6 -17 -35 -1 -51 9 -9 128 -12 473 -12 435 0 463 1
478 18 10 10 17 23 17 29 0 15 -931 31 -967 16z"/>
<path d="M3010 2745 c0 -13 38 -15 307 -13 234 2 307 6 311 16 3 9 -63 12
-307 12 -271 0 -311 -2 -311 -15z"/>
<path d="M2282 2588 c-51 -68 -109 -157 -130 -198 -33 -68 -36 -84 -39 -170
-3 -101 6 -100 25 3 15 81 69 186 149 292 l68 90 5 -33 c3 -18 8 -33 13 -32 4
0 12 0 17 0 6 0 10 15 10 33 0 51 -12 137 -19 137 -4 0 -48 -55 -99 -122z"/>
<path d="M2962 2654 c-14 -24 -3 -53 22 -59 11 -3 187 -4 390 -3 339 3 370 4
380 21 8 12 8 22 0 35 -10 16 -42 17 -397 20 -350 2 -387 1 -395 -14z"/>
<path d="M2544 2569 c-96 -18 -200 -94 -239 -174 -54 -113 -10 -291 85 -340
44 -23 72 -20 35 4 -120 74 -127 249 -15 362 123 123 276 136 348 29 67 -100
82 -300 31 -410 -14 -31 -41 -73 -60 -94 -26 -30 -33 -46 -30 -70 6 -60 16
-64 55 -23 157 166 187 357 89 552 -69 135 -168 190 -299 164z"/>
<path d="M2513 2416 c-81 -26 -141 -92 -158 -173 -7 -35 7 -98 28 -127 12 -17
13 -12 10 35 -4 43 0 63 19 99 35 64 128 122 147 91 5 -7 16 -65 25 -129 10
-64 37 -238 62 -387 24 -148 44 -295 44 -325 0 -61 -24 -123 -61 -157 -66 -60
-220 -100 -323 -83 -78 13 -117 37 -143 90 -29 57 -29 112 1 176 19 42 32 55
70 74 84 40 206 13 206 -46 0 -35 -23 -40 -80 -15 -70 30 -134 28 -165 -5 -76
-82 -24 -216 95 -244 154 -37 280 33 280 155 0 115 -111 205 -251 205 -81 0
-113 -11 -158 -53 -48 -46 -71 -101 -71 -172 0 -109 55 -183 167 -225 49 -18
73 -21 148 -17 121 6 193 34 261 102 81 80 99 165 70 320 -8 39 -23 125 -35
192 l-22 122 44 60 c76 103 87 216 31 327 -50 101 -141 143 -241 110z m154
-89 c57 -51 70 -196 25 -282 -25 -49 -24 -50 -52 135 -12 80 -23 153 -26 162
-7 22 20 15 53 -15z"/>
<path d="M2906 2395 c-3 -9 3 -24 14 -35 20 -20 32 -20 392 -18 333 3 372 5
381 20 8 12 7 21 -2 32 -12 14 -59 16 -396 16 -334 0 -384 -2 -389 -15z"/>
<path d="M2953 2292 c-45 -3 -50 -10 -33 -43 10 -18 27 -19 560 -19 479 0 551
2 564 15 16 16 12 44 -8 47 -22 3 -1042 3 -1083 0z"/>
<path d="M1535 2270 c-4 -6 -1 -18 6 -26 9 -11 33 -14 108 -12 91 3 96 4 99
26 3 22 2 22 -102 22 -62 0 -107 -4 -111 -10z"/>
<path d="M687 2133 c-4 -3 -7 -17 -7 -29 0 -18 7 -24 33 -29 18 -4 258 -5 534
-3 528 3 543 5 517 46 -10 16 -52 17 -541 20 -291 1 -533 -1 -536 -5z"/>
<path d="M2936 2124 c-12 -32 13 -45 78 -42 58 3 61 4 64 31 l3 27 -69 0 c-55
0 -71 -3 -76 -16z"/>
<path d="M3144 2125 c-4 -8 -4 -22 0 -30 5 -13 54 -15 383 -13 l378 3 0 25 0
25 -378 3 c-329 2 -378 0 -383 -13z"/>
<path d="M2943 2004 c-7 -3 -13 -16 -13 -28 l0 -23 277 -6 c231 -5 280 -4 292
7 7 8 11 22 8 30 -6 14 -35 16 -220 16 -118 0 -241 2 -273 5 -32 2 -65 2 -71
-1z"/>
<path d="M2572 1910 c-13 -6 -51 -13 -85 -17 -54 -7 -62 -11 -65 -30 -5 -33
34 -45 98 -33 72 14 90 26 90 60 0 32 -3 34 -38 20z"/>
<path d="M747 1813 c-16 -16 -6 -53 16 -58 12 -3 270 -4 572 -3 l550 3 3 24
c2 13 -2 27 -10 32 -16 10 -1121 12 -1131 2z"/>
<path d="M2735 1770 c-11 -18 18 -20 234 -18 161 2 215 6 219 16 5 15 -443 18
-453 2z"/>
<path d="M1074 1675 c-4 -8 -4 -22 0 -30 5 -13 65 -15 458 -15 249 0 459 4
466 9 8 5 12 17 10 27 -3 18 -22 19 -466 22 -405 2 -463 0 -468 -13z"/>
<path d="M2752 1663 l3 -28 396 -3 c344 -2 398 0 409 13 10 12 10 18 0 30 -11
13 -69 15 -412 15 l-399 0 3 -27z"/>
<path d="M2570 1665 c-6 -8 -9 -19 -6 -24 9 -14 36 -2 36 14 0 21 -16 26 -30
10z"/>
<path d="M3590 1670 c0 -6 30 -10 70 -10 40 0 70 4 70 10 0 6 -30 10 -70 10
-40 0 -70 -4 -70 -10z"/>
<path d="M2296 881 c-18 -7 -18 -8 5 -14 31 -9 182 -9 204 -1 13 5 14 8 3 15
-16 11 -186 10 -212 0z"/>
</g>
</svg>